# Blender v2.83.2 OBJ File: ''
# www.blender.org
mtllib square_lowres.mtl
o Cube
v 0.995758 -0.977230 -0.011955
v 0.995758 1.022770 -0.011955
v -1.004242 -0.977230 -0.011955
v -1.004242 1.022770 -0.011955
v -1.004242 0.022770 -0.011955
v -0.004242 -0.977230 -0.011955
v -0.004242 1.022770 -0.011955
v 0.995758 0.022770 -0.011955
v -0.004242 0.022770 -0.011955
v -1.004242 0.522770 -0.011955
v -0.504242 -0.977230 -0.011955
v 0.495758 1.022770 -0.011955
v 0.995758 -0.477230 -0.011955
v -1.004242 -0.477230 -0.011955
v 0.495758 -0.977230 -0.011955
v -0.504242 1.022770 -0.011955
v 0.995758 0.522770 -0.011955
v -0.004242 0.522770 -0.011955
v -0.004242 -0.477230 -0.011955
v -0.504242 0.022770 -0.011955
v 0.495758 0.022770 -0.011955
v 0.495758 -0.477230 -0.011955
v -0.504242 -0.477230 -0.011955
v -0.504242 0.522770 -0.011955
v 0.495758 0.522770 -0.011955
vt 0.375000 0.687500
vt 0.312500 0.750000
vt 0.312500 0.687500
vt 0.250000 0.687500
vt 0.187500 0.750000
vt 0.187500 0.687500
vt 0.250000 0.562500
vt 0.187500 0.625000
vt 0.187500 0.562500
vt 0.375000 0.562500
vt 0.312500 0.625000
vt 0.312500 0.562500
vt 0.250000 0.625000
vt 0.312500 0.500000
vt 0.250000 0.500000
vt 0.375000 0.500000
vt 0.125000 0.625000
vt 0.125000 0.562500
vt 0.187500 0.500000
vt 0.125000 0.500000
vt 0.125000 0.750000
vt 0.125000 0.687500
vt 0.250000 0.750000
vt 0.375000 0.625000
vt 0.375000 0.750000
vn 0.0000 0.0000 1.0000
usemtl Material
s off
f 17/1/1 12/2/1 25/3/1
f 18/4/1 16/5/1 24/6/1
f 19/7/1 20/8/1 23/9/1
f 13/10/1 21/11/1 22/12/1
f 22/12/1 9/13/1 19/7/1
f 15/14/1 19/7/1 6/15/1
f 1/16/1 22/12/1 15/14/1
f 23/9/1 5/17/1 14/18/1
f 11/19/1 14/18/1 3/20/1
f 6/15/1 23/9/1 11/19/1
f 24/6/1 4/21/1 10/22/1
f 20/8/1 10/22/1 5/17/1
f 9/13/1 24/6/1 20/8/1
f 25/3/1 7/23/1 18/4/1
f 21/11/1 18/4/1 9/13/1
f 8/24/1 25/3/1 21/11/1
f 17/1/1 2/25/1 12/2/1
f 18/4/1 7/23/1 16/5/1
f 19/7/1 9/13/1 20/8/1
f 13/10/1 8/24/1 21/11/1
f 22/12/1 21/11/1 9/13/1
f 15/14/1 22/12/1 19/7/1
f 1/16/1 13/10/1 22/12/1
f 23/9/1 20/8/1 5/17/1
f 11/19/1 23/9/1 14/18/1
f 6/15/1 19/7/1 23/9/1
f 24/6/1 16/5/1 4/21/1
f 20/8/1 24/6/1 10/22/1
f 9/13/1 18/4/1 24/6/1
f 25/3/1 12/2/1 7/23/1
f 21/11/1 25/3/1 18/4/1
f 8/24/1 17/1/1 25/3/1
